<?xml version="1.0" encoding="UTF-8" standalone="no"?>
<svg
   xmlns:dc="http://purl.org/dc/elements/1.1/"
   xmlns:cc="http://creativecommons.org/ns#"
   xmlns:rdf="http://www.w3.org/1999/02/22-rdf-syntax-ns#"
   xmlns:svg="http://www.w3.org/2000/svg"
   xmlns="http://www.w3.org/2000/svg"
   xmlns:xlink="http://www.w3.org/1999/xlink"
   xmlns:sodipodi="http://sodipodi.sourceforge.net/DTD/sodipodi-0.dtd"
   xmlns:inkscape="http://www.inkscape.org/namespaces/inkscape"
   width="65.537292mm"
   height="16.060207mm"
   viewBox="0 0 65.537292 16.060207"
   version="1.1"
   id="svg5"
   inkscape:version="1.0.1 (3bc2e813f5, 2020-09-07)"
   sodipodi:docname="Logo and Icons_v4.svg">
  <metadata
     id="metadata66">
    <rdf:RDF>
      <cc:Work
         rdf:about="">
        <dc:format>image/svg+xml</dc:format>
        <dc:type
           rdf:resource="http://purl.org/dc/dcmitype/StillImage" />
        <dc:title></dc:title>
      </cc:Work>
    </rdf:RDF>
  </metadata>
  <sodipodi:namedview
     id="namedview7"
     pagecolor="#ffffff"
     bordercolor="#666666"
     borderopacity="1.0"
     inkscape:pageshadow="2"
     inkscape:pageopacity="0.0"
     inkscape:pagecheckerboard="0"
     inkscape:document-units="mm"
     showgrid="false"
     inkscape:zoom="0.7071068"
     inkscape:cx="55.3674"
     inkscape:cy="381.46599"
     inkscape:window-width="1817"
     inkscape:window-height="1057"
     inkscape:window-x="-8"
     inkscape:window-y="-8"
     inkscape:window-maximized="1"
     inkscape:current-layer="g114874"
     inkscape:document-rotation="0"
     fit-margin-top="0"
     fit-margin-left="0"
     fit-margin-right="0"
     fit-margin-bottom="0" />
  <defs
     id="defs2">
    <inkscape:path-effect
       effect="fillet_chamfer"
       id="path-effect85955"
       is_visible="true"
       lpeversion="1"
       satellites_param="F,0,0,1,0,2.6458333,0,1 @ F,0,0,1,0,2.6458333,0,1 @ F,0,0,1,0,2.6458333,0,1 @ F,0,0,1,0,2.6458333,0,1"
       unit="px"
       method="auto"
       mode="F"
       radius="10"
       chamfer_steps="1"
       flexible="false"
       use_knot_distance="true"
       apply_no_radius="true"
       apply_with_radius="true"
       only_selected="false"
       hide_knots="false" />
    <linearGradient
       id="linear-gradient-17-0-0-7-9-8-0"
       x1="221.08"
       y1="159.64"
       x2="241.42"
       y2="159.64"
       gradientUnits="userSpaceOnUse"
       gradientTransform="matrix(0.26458333,0,0,0.26458333,-18.575477,-5.2267196)">
      <stop
         offset="0.03"
         stop-color="#ff1515"
         id="stop23234" />
      <stop
         offset="1"
         stop-color="#6653bd"
         id="stop23236" />
      <stop
         offset="1"
         stop-color="#ffefef"
         id="stop23238" />
      <stop
         offset="1"
         stop-color="#fff"
         id="stop23240" />
    </linearGradient>
    <linearGradient
       id="linear-gradient-15-6-6-7-9-6-6"
       x1="265.66"
       y1="159.5"
       x2="292.26999"
       y2="159.5"
       gradientUnits="userSpaceOnUse"
       gradientTransform="matrix(0.26458333,0,0,0.26458333,-18.575477,-5.2267196)">
      <stop
         offset="0.03"
         stop-color="#ff1515"
         id="stop865-6-9-9-8-0-0" />
      <stop
         offset="1"
         stop-color="#7054af"
         id="stop867-7-2-4-3-5-7" />
    </linearGradient>
    <linearGradient
       id="linear-gradient-16-2"
       x1="240.24001"
       y1="154.03"
       x2="270.23999"
       y2="154.03"
       gradientUnits="userSpaceOnUse"
       gradientTransform="translate(-229.5988,-94.023742)">
      <stop
         offset="0.03"
         stop-color="#ff1515"
         id="stop870-3" />
      <stop
         offset="1"
         stop-color="#7b4fa2"
         id="stop872-8" />
    </linearGradient>
    <linearGradient
       id="linear-gradient-17-0-0-7-9-8-0-5"
       x1="221.08"
       y1="159.64"
       x2="241.42"
       y2="159.64"
       gradientUnits="userSpaceOnUse"
       gradientTransform="matrix(0.26458333,0,0,0.26458333,-18.575477,-5.2267196)">
      <stop
         offset="0.03"
         stop-color="#ff1515"
         id="stop875-2-84-83-2-6-5" />
      <stop
         offset="1"
         stop-color="#6653bd"
         id="stop877-1-8-18-1-9-2" />
      <stop
         offset="1"
         stop-color="#ffefef"
         id="stop879-3-6-2-1-6-6" />
      <stop
         offset="1"
         stop-color="#fff"
         id="stop881-5-1-3-9-0-8" />
    </linearGradient>
    <linearGradient
       inkscape:collect="always"
       xlink:href="#linear-gradient-16-2"
       id="linearGradient60790"
       gradientUnits="userSpaceOnUse"
       gradientTransform="translate(-18.242825,22.881525)"
       x1="114.19765"
       y1="51.021923"
       x2="166.03635"
       y2="51.021923" />
    <inkscape:path-effect
       effect="fillet_chamfer"
       id="path-effect85955-3"
       is_visible="true"
       lpeversion="1"
       satellites_param="F,0,0,1,0,2.6458333,0,1 @ F,0,0,1,0,2.6458333,0,1 @ F,0,0,1,0,2.6458333,0,1 @ F,0,0,1,0,2.6458333,0,1"
       unit="px"
       method="auto"
       mode="F"
       radius="10"
       chamfer_steps="1"
       flexible="false"
       use_knot_distance="true"
       apply_no_radius="true"
       apply_with_radius="true"
       only_selected="false"
       hide_knots="false" />
    <inkscape:path-effect
       effect="fillet_chamfer"
       id="path-effect85955-3-3"
       is_visible="true"
       lpeversion="1"
       satellites_param="F,0,0,1,0,2.6458333,0,1 @ F,0,0,1,0,2.6458333,0,1 @ F,0,0,1,0,2.6458333,0,1 @ F,0,0,1,0,2.6458333,0,1"
       unit="px"
       method="auto"
       mode="F"
       radius="10"
       chamfer_steps="1"
       flexible="false"
       use_knot_distance="true"
       apply_no_radius="true"
       apply_with_radius="true"
       only_selected="false"
       hide_knots="false" />
    <inkscape:path-effect
       effect="fillet_chamfer"
       id="path-effect85955-3-8"
       is_visible="true"
       lpeversion="1"
       satellites_param="F,0,0,1,0,2.6458333,0,1 @ F,0,0,1,0,2.6458333,0,1 @ F,0,0,1,0,2.6458333,0,1 @ F,0,0,1,0,2.6458333,0,1"
       unit="px"
       method="auto"
       mode="F"
       radius="10"
       chamfer_steps="1"
       flexible="false"
       use_knot_distance="true"
       apply_no_radius="true"
       apply_with_radius="true"
       only_selected="false"
       hide_knots="false" />
    <inkscape:path-effect
       effect="fillet_chamfer"
       id="path-effect85955-3-8-8"
       is_visible="true"
       lpeversion="1"
       satellites_param="F,0,0,1,0,2.6458333,0,1 @ F,0,0,1,0,2.6458333,0,1 @ F,0,0,1,0,2.6458333,0,1 @ F,0,0,1,0,2.6458333,0,1"
       unit="px"
       method="auto"
       mode="F"
       radius="10"
       chamfer_steps="1"
       flexible="false"
       use_knot_distance="true"
       apply_no_radius="true"
       apply_with_radius="true"
       only_selected="false"
       hide_knots="false" />
  </defs>
  <g
     inkscape:label="Layer 1"
     inkscape:groupmode="layer"
     id="layer1"
     transform="translate(-3.6238471,-2.6201488)">
    <g
       id="g114874"
       transform="matrix(0.26458333,0,0,0.26458333,28.925009,62.538756)">
      <g
         id="g114814"
         transform="translate(-181.72644,-284.96403)">
        <g
           id="g114782">
          <path
             d="m 86.1,62.5 h 18.4 v 5.4 h -6.2 v 32.4 H 92.4 V 67.9 h -6.2 v -5.4 z"
             id="path114757" />
          <path
             d="m 119,78.5 h 8.2 v 5.4 H 119 V 95 h 10.3 v 5.4 H 113.1 V 62.5 h 16.2 v 5.4 H 119 Z"
             id="path114759" />
          <path
             d="m 150.3,100.3 c -0.3,-1 -0.5,-1.6 -0.5,-4.6 v -5.9 c 0,-3.5 -1.2,-4.8 -3.9,-4.8 h -2.1 v 15.4 h -5.9 V 62.5 h 9 c 6.2,0 8.8,2.9 8.8,8.7 v 3 c 0,3.9 -1.2,6.4 -3.9,7.7 3,1.2 3.9,4.1 3.9,8 v 5.8 c 0,1.8 0.1,3.2 0.6,4.6 z m -6.5,-32.4 v 11.6 h 2.3 c 2.2,0 3.6,-1 3.6,-4 v -3.7 c 0,-2.7 -0.9,-3.9 -3,-3.9 z"
             id="path114761" />
          <path
             d="m 184.5,100.3 h -6 l -1,-6.9 h -7.3 l -1,6.9 h -5.5 l 6,-37.8 h 8.7 z M 170.9,88.4 h 5.7 l -2.9,-19.1 z"
             id="path114763" />
          <path
             d="m 210.3,71.2 v 1.4 c 0,3.9 -1.2,6.4 -3.8,7.6 3.2,1.2 4.4,4.1 4.4,8.1 v 3.1 c 0,5.8 -3.1,9 -9,9 h -9.3 V 62.5 h 9 c 6.1,0 8.7,2.9 8.7,8.7 z m -11.8,-3.3 v 10 h 2.3 c 2.2,0 3.6,-1 3.6,-4 v -2.1 c 0,-2.7 -0.9,-3.9 -3,-3.9 0,0 -2.9,0 -2.9,0 z m 0,15.4 v 11.6 h 3.4 c 2,0 3.1,-0.9 3.1,-3.7 v -3.3 c 0,-3.5 -1.1,-4.6 -3.8,-4.6 z"
             id="path114765" />
          <path
             d="m 274.8,100.3 h -5.9 V 62.5 h 5.9 v 16.2 h 6.8 V 62.5 h 6 v 37.8 h -6 V 84.1 h -6.8 z"
             id="path114767" />
          <path
             d="m 297.9,62.5 h 5.9 v 37.8 h -5.9 z"
             id="path114769" />
          <path
             d="m 333.4,100.3 h -6 l -1,-6.9 h -7.3 l -1,6.9 h -5.5 l 6,-37.8 h 8.7 z M 319.8,88.4 h 5.7 l -2.9,-19.1 z"
             id="path114771" />
          <linearGradient
             id="SVGID_00000088831392346148915420000002685580985524610709_"
             gradientUnits="userSpaceOnUse"
             x1="230.99091"
             y1="102.9637"
             x2="243.12531"
             y2="57.677601">
            <stop
               offset="0"
               style="stop-color:#E12235"
               id="stop114773" />
            <stop
               offset="0.2627"
               style="stop-color:#DD2439"
               id="stop114775" />
            <stop
               offset="1"
               style="stop-color:#7054AF"
               id="stop114777" />
          </linearGradient>
          <path
             style="fill:url(#SVGID_00000088831392346148915420000002685580985524610709_)"
             d="m 243,62.5 v 5.4 h 6.2 v 10.6 l 0.1,6 v 1.6 h -5 c -1.1,-2.2 -3.4,-3.8 -6,-3.8 -2.6,0 -4.9,1.5 -6,3.8 h -4.8 v -1.6 l -0.1,-6 v -7.3 c 2.2,-1.1 3.8,-3.4 3.8,-6 0,-3.7 -3,-6.7 -6.7,-6.7 -3.7,0 -6.7,3 -6.7,6.7 0,2.6 1.5,4.9 3.8,6 v 29.2 h 5.9 v -8.3 h 4.9 c 1.1,2.2 3.4,3.8 6,3.8 2.6,0 4.9,-1.5 6,-3.8 h 4.9 v 8.3 h 5.9 V 84.5 78.5 68 h 6.1 v -0.1 -5.4 z m -18.6,4.9 c -1.2,0 -2.2,-1 -2.2,-2.2 0,-1.2 1,-2.2 2.2,-2.2 1.2,0 2.2,1 2.2,2.2 0,1.2 -1,2.2 -2.2,2.2 z m 13.9,23.8 c -1.2,0 -2.2,-1 -2.2,-2.2 0,-1.2 1,-2.2 2.2,-2.2 1.2,0 2.2,1 2.2,2.2 0,1.3 -1,2.2 -2.2,2.2 z"
             id="path114780" />
        </g>
        <g
           id="g114812">
          <path
             class="st7"
             d="m 162.7,117.9 0.5,-1.1 c 0.7,0.7 2,1.1 3.2,1.1 1.7,0 2.4,-0.7 2.4,-1.5 0,-2.4 -5.9,-0.9 -5.9,-4.5 0,-1.5 1.2,-2.8 3.8,-2.8 1.1,0 2.3,0.3 3.2,0.9 l -0.5,1.1 c -0.9,-0.5 -1.8,-0.8 -2.7,-0.8 -1.7,0 -2.4,0.7 -2.4,1.6 0,2.4 5.9,0.9 5.9,4.5 0,1.5 -1.2,2.8 -3.8,2.8 -1.5,-0.1 -2.9,-0.6 -3.7,-1.3 z"
             id="path114784" />
          <path
             class="st7"
             d="m 182,117.8 v 1.2 h -7.1 v -9.8 h 6.9 v 1.2 h -5.5 v 3 h 4.9 v 1.2 h -4.9 v 3.2 z"
             id="path114786" />
          <path
             class="st7"
             d="m 195.3,109.2 v 9.8 h -1.1 l -5.9,-7.3 v 7.3 h -1.4 v -9.8 h 1.1 l 5.9,7.3 v -7.3 z"
             id="path114788" />
          <path
             class="st7"
             d="m 199.9,117.9 0.5,-1.1 c 0.7,0.7 2,1.1 3.2,1.1 1.7,0 2.4,-0.7 2.4,-1.5 0,-2.4 -5.9,-0.9 -5.9,-4.5 0,-1.5 1.2,-2.8 3.8,-2.8 1.1,0 2.3,0.3 3.2,0.9 l -0.5,1.1 c -0.9,-0.5 -1.8,-0.8 -2.7,-0.8 -1.7,0 -2.4,0.7 -2.4,1.6 0,2.4 5.9,0.9 5.9,4.5 0,1.5 -1.2,2.8 -3.8,2.8 -1.5,-0.1 -2.9,-0.6 -3.7,-1.3 z"
             id="path114790" />
          <path
             class="st7"
             d="m 212.1,109.2 h 1.4 v 9.8 h -1.4 z"
             id="path114792" />
          <path
             class="st7"
             d="m 227.4,109.2 v 9.8 h -1.1 l -5.9,-7.3 V 119 H 219 v -9.8 h 1.1 l 5.9,7.3 v -7.3 z"
             id="path114794" />
          <path
             class="st7"
             d="m 239.7,114.1 h 1.3 v 3.8 c -1,0.8 -2.3,1.2 -3.7,1.2 -3,0 -5.2,-2.1 -5.2,-5 0,-2.9 2.2,-5 5.3,-5 1.6,0 2.9,0.5 3.8,1.5 l -0.9,0.9 c -0.8,-0.8 -1.7,-1.1 -2.8,-1.1 -2.3,0 -3.9,1.6 -3.9,3.8 0,2.2 1.6,3.8 3.9,3.8 0.8,0 1.6,-0.2 2.3,-0.6 v -3.3 z"
             id="path114796" />
          <path
             class="st7"
             d="m 251.8,117.9 0.5,-1.1 c 0.7,0.7 2,1.1 3.2,1.1 1.7,0 2.4,-0.7 2.4,-1.5 0,-2.4 -5.9,-0.9 -5.9,-4.5 0,-1.5 1.2,-2.8 3.8,-2.8 1.1,0 2.3,0.3 3.2,0.9 l -0.5,1.1 c -0.9,-0.5 -1.8,-0.8 -2.7,-0.8 -1.7,0 -2.4,0.7 -2.4,1.6 0,2.4 5.9,0.9 5.9,4.5 0,1.5 -1.2,2.8 -3.8,2.8 -1.4,-0.1 -2.9,-0.6 -3.7,-1.3 z"
             id="path114798" />
          <path
             class="st7"
             d="m 273.1,119 v -7.1 l -3.5,6 H 269 l -3.5,-5.9 v 7.1 H 264 v -9.8 h 1.1 l 4.1,6.9 4,-6.9 h 1.1 v 9.8 h -1.2 z"
             id="path114800" />
          <path
             class="st7"
             d="M 286.2,116.6 H 281 l -1.1,2.5 h -1.4 l 4.4,-9.8 h 1.4 l 4.5,9.8 h -1.5 z m -0.5,-1.2 -2.1,-4.8 -2.1,4.8 z"
             id="path114802" />
          <path
             class="st7"
             d="m 299.3,119 -2.1,-3 c -0.2,0 -0.4,0 -0.6,0 h -2.4 v 3 h -1.4 v -9.8 h 3.8 c 2.5,0 4.1,1.3 4.1,3.4 0,1.5 -0.8,2.6 -2.2,3.1 l 2.3,3.3 z m 0,-6.4 c 0,-1.4 -0.9,-2.2 -2.7,-2.2 h -2.4 v 4.4 h 2.4 c 1.8,0 2.7,-0.8 2.7,-2.2 z"
             id="path114804" />
          <path
             class="st7"
             d="M 307.4,110.4 H 304 v -1.2 h 8.1 v 1.2 h -3.4 v 8.6 h -1.4 v -8.6 z"
             id="path114806" />
          <path
             class="st7"
             d="m 316.2,109.2 h 1.4 v 8.6 h 5.3 v 1.2 h -6.7 z"
             id="path114808" />
          <path
             class="st7"
             d="m 329.9,115.6 v 3.4 h -1.4 v -3.4 l -3.9,-6.4 h 1.5 l 3.1,5.2 3.2,-5.2 h 1.4 z"
             id="path114810" />
        </g>
      </g>
    </g>
  </g>
  <style
     type="text/css"
     id="style114684">
	.st0{fill:url(#SVGID_1_);}
	.st1{fill:url(#SVGID_00000085939362334935608950000004829972012492710531_);}
	.st2{fill:#FFFFFF;}
	.st3{fill:url(#SVGID_00000080915765350675848330000015075188233857727126_);}
	.st4{fill:url(#SVGID_00000088098218668506704620000013888765679254057904_);}
	.st5{fill:url(#SVGID_00000036235441192447499360000015143010719305078149_);}
	.st6{fill:url(#SVGID_00000167371051813279622060000011699525155144109481_);}
	.st7{fill:#666666;}
</style>
</svg>
